<svg width="1279" height="2073" fill="none" xmlns="http://www.w3.org/2000/svg"><path d="M61.961 492.039c13.601 99.691-37.782 91.628-65.173 75.135V1791.33c0 239.23-13.023 135.56 0 202.94 7.903 40.9 51.005-157.12 39.67-202.94-11.334-45.81-8.5-131.94 41.088-150.27 49.588-18.33 56.672-60.47 82.175-113.62 25.502-53.14 90.676-157.6 249.358-76.97 158.683 80.64 263.527 7.33 338.618-65.97 148.765-145.22 401.083.71 471.203 125.12 36.79 65.28-63.59 399.1 0 430.23 31.76 15.55 60.1 301.38 60.1-15.55V471.88c-.94 13.439-7.93 36.285-28.34 20.159-60.07-39.584-35.42-160.656-15.58-216.244 10.86-53.145 14.45-177.76-58.09-251.062-85.31-86.21-336.359 80.633-481.997 80.633-159.115 0-236.325-47.647-331.252-91.629-94.926-43.981-170.017 31.154-199.77 91.629-29.753 60.475-31.169 84.298-76.507 111.787-89.26 42.149-42.505 150.271-25.503 274.886Z" fill="#FEF3E4"/></svg>