<svg width="320" height="1303" fill="none" xmlns="http://www.w3.org/2000/svg"><path d="M14.85 102.454c3.422 20.758-9.504 19.079-16.394 15.645v254.897c0 49.812-3.276 914.884 0 928.914 1.988 8.51 19.246-35.33 16.394-44.87-2.85-9.54-8.553-44.42 3.92-48.24 12.475-3.81 14.257-12.59 20.672-23.65 6.415-11.07 22.81-32.82 62.727-16.03s66.291 1.53 85.18-13.74c37.422-30.24 100.893.15 118.532 26.05 9.256 13.6-15.995 80.79 0 87.28 7.991 3.23 15.119 62.75 15.119-3.24V98.256c-.238 2.798-1.996 7.555-7.128 4.198-15.111-8.243-8.91-33.453-3.92-45.027 2.732-11.066 3.635-37.014-14.613-52.277-21.461-17.95-84.612 16.79-121.248 16.79-40.025 0-59.448-9.922-83.327-19.08-23.879-9.157-42.768 6.487-50.252 19.08-7.485 12.592-7.841 17.552-19.246 23.276-22.454 8.776-10.692 31.29-6.415 57.238Z" fill="#FEF3E4"/></svg>