<svg width="768" height="1456" fill="none" xmlns="http://www.w3.org/2000/svg"><path d="M-34.212 263.857c9.927 53.46-27.573 49.136-47.564 40.291v656.457c0 128.285-9.504 456.455 0 492.585 5.768 21.93 55.836-90.99 47.564-115.56-8.272-24.56-24.816-114.39 11.374-124.22 36.19-9.83 41.36-32.43 59.973-60.93 18.612-28.5 66.176-84.51 181.985-41.27 115.809 43.24 192.325 3.93 247.128-35.38 108.57-77.878 292.712.38 343.888 67.09 26.855 35.01-46.404 208.07 0 224.76 23.184 8.34 43.864 161.61 43.864-8.34V253.047c-.689 7.206-5.79 19.457-20.68 10.81-43.842-21.227-25.85-86.152-11.374-115.961 7.927-28.499 10.547-95.324-42.394-134.633-62.263-46.23-245.48 43.24-351.769 43.24-116.124 0-172.473-25.551-241.751-49.136C116.753-16.218 61.951 24.073 40.237 56.503c-21.714 32.43-22.748 45.205-55.837 59.946-65.142 22.602-31.02 80.583-18.612 147.408Z" fill="#FEF3E4"/></svg>