<svg width="320" height="1039" fill="none" xmlns="http://www.w3.org/2000/svg"><path d="M14.85 81.695C18.273 98.248 5.347 96.91-1.543 94.171v203.252c0 39.72-3.276 729.517 0 740.707 1.988 6.79 19.246-28.17 16.394-35.78-2.85-7.605-8.553-35.419 3.92-38.461 12.475-3.043 14.257-10.041 20.672-18.865 6.415-8.824 22.81-26.167 62.727-12.779 39.917 13.387 66.291 1.217 85.18-10.954 37.422-24.112 100.893.118 118.532 20.774 9.256 10.839-15.995 64.425 0 69.585 7.991 2.59 15.119 50.04 15.119-2.58V78.348c-.238 2.232-1.996 6.025-7.128 3.347-15.111-6.572-8.91-26.674-3.92-35.903 2.732-8.824 3.635-29.515-14.613-41.686-21.461-14.313-84.612 13.388-121.248 13.388-40.025 0-59.448-7.91-83.327-15.213-23.879-7.303-42.768 5.172-50.252 15.213-7.485 10.041-7.841 13.997-19.246 18.56-22.454 7-10.692 24.951-6.415 45.641Z" fill="#FEF3E4"/></svg>