<svg version="1.1" id="Livello_1" xmlns="http://www.w3.org/2000/svg" x="0" y="0" viewBox="0 0 100 100" xml:space="preserve"><rect fill="none"/><path fill="#E09868" d="M50 17.897c-17.739 0-32.118 14.38-32.118 32.118S32.261 82.132 50 82.132c17.738 0 32.118-14.379 32.118-32.117S67.738 17.897 50 17.897zm0 58.154c-14.379 0-26.036-11.657-26.036-26.036 0-14.379 11.657-26.036 26.036-26.036s26.035 11.657 26.035 26.036c0 14.379-11.656 26.036-26.035 26.036z"/><path fill="#EFAF84" d="M50 23.979c-14.379 0-26.036 11.657-26.036 26.036 0 14.378 11.657 26.036 26.036 26.036s26.035-11.657 26.035-26.036c0-14.379-11.656-26.036-26.035-26.036zm0 45.029c-10.489 0-18.993-8.504-18.993-18.993 0-10.489 8.504-18.993 18.993-18.993 10.49 0 18.993 8.504 18.993 18.993 0 10.489-8.503 18.993-18.993 18.993z"/><path fill="#E09868" d="M50 31.022c-10.489 0-18.993 8.504-18.993 18.993 0 10.489 8.504 18.993 18.993 18.993 10.49 0 18.993-8.504 18.993-18.993 0-10.489-8.503-18.993-18.993-18.993zm0 28.346a9.353 9.353 0 1 1 0-18.706c5.165 0 9.354 4.187 9.354 9.353 0 5.166-4.189 9.353-9.354 9.353z"/><path fill="#8E5E5B" d="M40.959 52.421s-3.444 9.651-12.407 4.316c0 0-7.131-3.027-9.114 3.181 0 0-8.812-26.442 17.804-39.387 0 0 31.751-13.745 43.801 21.213 0 0-6.607-2.506-10.022 2.829 0 0-2.625 8.118-11.77 4.059 0 0-1.251-9.242-10.907-7.824 0 0-8.849 1.215-7.385 11.613z"/><path fill="#4CC936" d="M38.061 34.811a.373.373 0 0 1-.374.373h-3.948a.373.373 0 0 1-.374-.373v-.854c0-.207.167-.374.374-.374h3.948c.206 0 .374.167.374.374v.854z"/><path fill="#4C91E5" d="M44.322 36.051a.374.374 0 0 1-.064.524l-3.114 2.428a.373.373 0 0 1-.524-.065l-.524-.673a.372.372 0 0 1 .064-.524l3.113-2.428a.373.373 0 0 1 .524.065l.525.673zM36.662 25.021a.373.373 0 0 1 .133.511l-1.998 3.405a.373.373 0 0 1-.511.133l-.736-.43a.374.374 0 0 1-.134-.511l1.998-3.405a.373.373 0 0 1 .511-.133l.737.43z"/><path fill="#F74B4B" d="M33.956 38.694a.374.374 0 0 1 .346.399l-.277 3.938a.374.374 0 0 1-.398.347l-.852-.06a.375.375 0 0 1-.347-.399l.277-3.938a.375.375 0 0 1 .399-.347l.852.06zM27.615 35.577a.373.373 0 0 1 .346.399l-.277 3.938a.374.374 0 0 1-.398.347l-.852-.06a.375.375 0 0 1-.347-.399l.277-3.938a.375.375 0 0 1 .399-.347l.852.06z"/><path fill="#F4E808" d="M37.181 41.161a.373.373 0 0 1 .514.119l2.089 3.351a.372.372 0 0 1-.119.514l-.725.452a.375.375 0 0 1-.515-.119l-2.089-3.351a.372.372 0 0 1 .119-.514l.726-.452zM30.965 29.844a.374.374 0 0 1 .378.369l.052 3.948a.373.373 0 0 1-.369.378l-.854.011a.375.375 0 0 1-.378-.369l-.052-3.948a.372.372 0 0 1 .368-.378l.855-.011z"/><path fill="#4CC936" d="M44.047 22.134a.373.373 0 0 1-.373.374h-3.948a.373.373 0 0 1-.373-.374v-.854c0-.206.167-.374.373-.374h3.948c.206 0 .373.167.373.374v.854z"/><path fill="#4C91E5" d="M50.309 23.375a.373.373 0 0 1-.065.524l-3.113 2.428a.375.375 0 0 1-.525-.064l-.525-.674a.374.374 0 0 1 .065-.524l3.114-2.428a.374.374 0 0 1 .524.065l.525.673z"/><path fill="#F74B4B" d="M39.942 26.018a.374.374 0 0 1 .347.398l-.277 3.938a.373.373 0 0 1-.399.346l-.851-.06a.375.375 0 0 1-.347-.399l.277-3.938a.373.373 0 0 1 .398-.346l.852.061z"/><path fill="#F4E808" d="M43.167 28.484a.374.374 0 0 1 .515.119l2.089 3.35a.374.374 0 0 1-.119.515l-.724.452a.374.374 0 0 1-.515-.119l-2.089-3.35a.373.373 0 0 1 .119-.514l.724-.453z"/><path fill="#4CC936" d="M53.904 29.3a.374.374 0 0 1 .503.162l1.798 3.515a.372.372 0 0 1-.162.503l-.76.389a.373.373 0 0 1-.502-.162l-1.799-3.515a.373.373 0 0 1 .162-.502l.76-.39zM66.322 25.399a.373.373 0 0 1 .502.162l1.799 3.515a.373.373 0 0 1-.162.502l-.76.389a.374.374 0 0 1-.503-.163l-1.799-3.515a.372.372 0 0 1 .162-.502l.761-.388z"/><path fill="#4C91E5" d="M52.156 23.161a.373.373 0 0 1 .496-.181l3.58 1.666a.373.373 0 0 1 .181.496l-.36.774a.374.374 0 0 1-.496.181l-3.58-1.666a.373.373 0 0 1-.181-.496l.36-.774z"/><path fill="#F74B4B" d="M59.231 31.185a.373.373 0 0 1 .197-.49l3.632-1.547a.373.373 0 0 1 .49.197l.335.785a.373.373 0 0 1-.197.49l-3.632 1.548a.374.374 0 0 1-.49-.197l-.335-.786z"/><path fill="#F4E808" d="M59.958 27.191a.374.374 0 0 1-.128-.512l2.03-3.386a.374.374 0 0 1 .513-.128l.732.439a.374.374 0 0 1 .127.513l-2.029 3.386a.374.374 0 0 1-.513.128l-.732-.44z"/><path fill="#4CC936" d="M62.815 39.506a.373.373 0 0 1 .502.162l1.799 3.515a.374.374 0 0 1-.162.503l-.76.389a.374.374 0 0 1-.503-.162l-1.799-3.515a.374.374 0 0 1 .162-.503l.761-.389z"/><path fill="#4C91E5" d="M61.066 33.367a.375.375 0 0 1 .497-.181l3.579 1.666a.373.373 0 0 1 .181.496l-.36.774a.373.373 0 0 1-.496.181l-3.579-1.666a.375.375 0 0 1-.182-.497l.36-.773z"/><path fill="#F74B4B" d="M68.142 41.39a.374.374 0 0 1 .198-.489l3.632-1.548a.372.372 0 0 1 .489.197l.335.785a.373.373 0 0 1-.197.49l-3.632 1.548a.375.375 0 0 1-.49-.197l-.335-.786z"/><path fill="#F4E808" d="M68.869 37.396a.372.372 0 0 1-.128-.512l2.029-3.386a.374.374 0 0 1 .513-.128l.732.439a.374.374 0 0 1 .128.512l-2.03 3.386a.373.373 0 0 1-.513.128l-.731-.439z"/><path fill="#4CC936" d="M62.815 39.506a.373.373 0 0 1 .502.162l1.799 3.515a.374.374 0 0 1-.162.503l-.76.389a.374.374 0 0 1-.503-.162l-1.799-3.515a.374.374 0 0 1 .162-.503l.761-.389z"/><path fill="#4C91E5" d="M61.066 33.173a.375.375 0 0 1 .497-.181l3.579 1.666a.373.373 0 0 1 .181.496l-.36.774a.373.373 0 0 1-.496.181l-3.579-1.666a.374.374 0 0 1-.182-.496l.36-.774zM73.221 35.781a.373.373 0 0 1 .496-.181l3.58 1.666a.372.372 0 0 1 .181.496l-.36.774a.373.373 0 0 1-.496.181l-3.579-1.666a.373.373 0 0 1-.182-.496l.36-.774z"/><path fill="#F74B4B" d="M68.142 41.39a.374.374 0 0 1 .198-.489l3.632-1.548a.372.372 0 0 1 .489.197l.335.785a.373.373 0 0 1-.197.49l-3.632 1.548a.375.375 0 0 1-.49-.197l-.335-.786z"/><path fill="#F4E808" d="M68.869 37.396a.372.372 0 0 1-.128-.512l2.029-3.386a.374.374 0 0 1 .513-.128l.732.439a.374.374 0 0 1 .128.512l-2.03 3.386a.373.373 0 0 1-.513.128l-.731-.439z"/><path fill="#4CC936" d="M27.024 45.208a.374.374 0 0 1-.374.374h-3.947a.374.374 0 0 1-.374-.374v-.854c0-.206.167-.374.374-.374h3.947c.206 0 .374.168.374.374v.854z"/><path fill="#4C91E5" d="M33.286 46.449a.372.372 0 0 1-.064.523l-3.114 2.429a.375.375 0 0 1-.524-.065l-.525-.674a.372.372 0 0 1 .064-.523l3.113-2.428a.373.373 0 0 1 .524.064l.526.674z"/><path fill="#F74B4B" d="M22.92 49.091c.206.015.36.193.346.398l-.277 3.938a.375.375 0 0 1-.399.347l-.852-.06a.374.374 0 0 1-.346-.399l.277-3.938a.373.373 0 0 1 .399-.346l.852.06z"/><path fill="#F4E808" d="M26.145 51.558a.374.374 0 0 1 .515.119l2.089 3.35a.374.374 0 0 1-.119.515l-.724.452a.374.374 0 0 1-.514-.12l-2.09-3.35a.373.373 0 0 1 .12-.514l.723-.452z"/></svg>