<svg version="1.0" xmlns="http://www.w3.org/2000/svg" width="1633.333" height="1633.333" viewBox="0 0 1225 1225"><path d="M539.7 209.6c-.1.1-9.4.5-20.7.9-11.3.3-23 .8-26 1-13.2.9-22.8 1.6-27 2-2.5.2-7.6.7-11.5 1-3.8.3-8.1.8-9.5 1-1.4.2-5.4.6-9 1-5.9.5-9.8 1-17 2-1.4.2-4.5.7-7 1-2.5.3-5.6.8-7 1-3.1.5-21.4 3.5-25.5 4.2-2.4.4-17.8 3.6-27.7 5.8C290.4 244 204 278 151 309.5c-17.3 10.3-46.9 30.4-49 33.4-.3.4-3.2 2.8-6.5 5.3-9.9 7.7-22.6 19.7-35 33-19.4 20.8-29.9 35.2-37.6 51.3-4.9 10.4-16.5 41.4-19.5 52.6-1.8 6.6-2.5 23.7-1.2 29.2 1.7 7.2 4.2 12.9 8.2 19.1l4.4 6.6-2.8 11.8c-2.8 11.8-4.6 21.4-5.4 28.7-.3 2.2-.8 6.2-1.1 9C2.7 613 3.8 648.7 8 674c.5 3 1.2 7.3 1.6 9.5.3 2.2 1.4 8 2.5 13 10.7 49 33.1 91.8 72.4 138.4 11.1 13.1 36.1 38.6 48.8 49.6 12.5 11 25.3 20.9 36.7 28.6 5.2 3.5 9.7 6.6 10 6.9.6.6 1.1.9 16 9.4 9.8 5.5 14.2 7.7 34 16.8 26.1 12.1 76.2 29.6 106.5 37.3 1.7.5 3.5 1 4 1.1 3.5 1.1 37.6 9.6 40.5 10 1.9.3 3.8.8 4.1 1 .4.2 2.4.6 4.5 1 2.2.3 9.1 1.7 15.4 3 6.3 1.4 14.2 2.9 17.5 3.4 3.3.5 6.9 1.1 8 1.3 1.1.3 4 .8 6.5 1.1 2.5.3 5.6.8 7 1 1.4.2 4.7.7 7.3 1.1 2.7.4 5.6.8 6.5 1 1 .1 4.4.6 7.7.9 3.3.4 7.1.9 8.5 1.1 1.4.2 5.7.6 9.5 1 3.9.3 8.1.8 9.5 1 2.3.3 7.7.8 24 2 34.2 2.6 114.5 2.6 136 0 1.9-.2 7.8-.7 13.1-1 5.3-.3 10.6-.8 11.8-1 1.2-.2 5.6-.6 9.9-1 4.2-.3 8.8-.7 10.2-1 1.4-.2 5.4-.7 9-1.1 3.6-.3 7.4-.8 8.5-1 1.1-.2 4-.6 6.5-.9 11.5-1.4 17.5-2.3 27-3.9 1.4-.3 9-1.6 17-3 19.7-3.5 31.8-6 56-11.6 11.4-2.7 29.9-7.8 46-12.7 19.4-5.9 53.8-17.9 55.5-19.4.5-.5 1.5-.9 2.2-.9.7 0 3.2-.9 5.6-1.9 2.3-1.1 9.6-4.3 16.2-7.1 6.6-2.9 13.8-6.2 16-7.3 2.2-1.2 4.2-2.1 4.5-2.2.3 0 4.3-2 9-4.4 29.3-15.1 56.2-31.9 77.1-48.1 35.5-27.6 65.8-61.6 89.2-100.3 9.2-15.2 19.3-34.9 25.2-49.4 2-4.8 4-9.7 4.5-10.8 1.5-3.1 8.6-25.1 11-33.8 2-7.5 2.4-9 3.5-14.7.5-2.7 1.2-6 2-10 1.8-9 3.2-20.5 3.4-27.6.1-3.8.5-4.3 5.8-8 9.5-6.5 18.2-18.4 22.4-30.3 2.7-7.7 3.4-13.1 3.4-26.1 0-12-.6-17.1-2.9-25.8-.8-2.8-1.2-5.2-.9-5.2.3 0 0-.7-.7-1.5s-1-1.5-.7-1.5c.8 0-6.6-18.5-11.2-28.1-6.7-13.7-19.7-36.1-21.3-36.7-.4-.2-.8-.8-.8-1.4 0-2.3-25.9-38.4-35.9-49.9-1.1-1.3-2.9-3.5-4.1-4.9-9.5-11.4-36.2-38.9-50-51.5-61.2-56-138.6-98.4-226.5-124.1-8.2-2.5-15.9-4.7-17-4.9-1.1-.3-3.8-.9-6-1.4-15.1-3.7-28-6.5-41-9.1-19-3.7-26.1-4.9-39-6.5-2.1-.3-5-.7-6.4-.9-4.9-.8-10.6-1.5-16.1-2.1-3-.4-6.6-.8-8-1-1.4-.2-5.9-.7-10-1.1-4.1-.3-8.8-.8-10.5-1-1.6-.1-6.6-.5-11-.8-4.4-.4-10.2-.8-13-1.1-10.9-1-32.6-2.1-59.5-3.1-15.5-.6-91.8-1.2-92.3-.8z"/></svg>