<svg aria-hidden="true" style="width:0;height:0;position:absolute;overflow:hidden" xmlns="http://www.w3.org/2000/svg"><defs><symbol id="twitter" viewBox="0 0 32 32"><path d="M32 5.441c-1.19.583-2.458.97-3.78 1.158 1.36-.908 2.398-2.334 2.886-4.053a12.307 12.307 0 0 1-4.16 1.775C25.742 2.888 24.026 2 22.154 2c-3.632 0-6.556 3.295-6.556 7.335 0 .581.044 1.14.152 1.672-5.454-.297-10.28-3.219-13.522-7.671a8.059 8.059 0 0 0-.898 3.707c0 2.54 1.17 4.791 2.914 6.095-1.054-.022-2.088-.364-2.964-.903v.08c0 3.564 2.274 6.524 5.256 7.206a5.905 5.905 0 0 1-1.72.241c-.42 0-.844-.027-1.242-.125.85 2.904 3.262 5.039 6.13 5.109-2.232 1.952-5.066 3.128-8.134 3.128-.538 0-1.054-.027-1.57-.101 2.906 2.095 6.35 3.291 10.064 3.291 12.072 0 18.672-11.178 18.672-20.868 0-.324-.01-.637-.024-.948C30.014 8.215 31.108 6.925 32 5.441z"/></symbol><symbol id="instagram" viewBox="0 0 32 32"><path d="M16.316 32h-.319c-2.508.006-4.826-.058-7.08-.195-2.066-.126-3.953-.84-5.455-2.065-1.45-1.182-2.44-2.781-2.942-4.75-.438-1.715-.461-3.398-.483-5.026a343.853 343.853 0 0 1-.036-3.96c.003-1.414.02-2.798.036-3.966.022-1.628.045-3.311.483-5.026.503-1.97 1.493-3.568 2.942-4.75C4.965 1.037 6.851.323 8.918.197 11.172.06 13.49-.004 16.004.002c2.509-.005 4.826.058 7.08.195 2.066.126 3.953.84 5.455 2.065 1.45 1.182 2.44 2.781 2.943 4.75.437 1.715.461 3.398.483 5.026.016 1.168.033 2.553.036 3.96v.006c-.003 1.408-.02 2.792-.036 3.96-.022 1.628-.045 3.311-.483 5.026-.503 1.97-1.493 3.568-2.943 4.75-1.502 1.225-3.389 1.939-5.455 2.065-2.159.131-4.376.195-6.768.195zm-.319-2.5c2.468.006 4.733-.056 6.934-.19 1.563-.095 2.917-.602 4.027-1.507 1.026-.837 1.732-1.991 2.1-3.431.364-1.428.385-2.96.406-4.442.016-1.16.032-2.535.036-3.929-.004-1.394-.02-2.769-.036-3.929-.02-1.482-.041-3.015-.406-4.443-.367-1.44-1.074-2.594-2.1-3.431-1.11-.905-2.465-1.412-4.027-1.507a108.807 108.807 0 0 0-6.928-.19c-2.467-.006-4.733.056-6.934.19-1.563.095-2.917.602-4.027 1.507-1.026.837-1.732 1.991-2.1 3.431-.364 1.428-.385 2.96-.406 4.443a363.726 363.726 0 0 0-.036 3.932c.003 1.389.02 2.765.036 3.926.02 1.482.041 3.015.406 4.442.367 1.44 1.074 2.594 2.1 3.431 1.11.905 2.465 1.412 4.027 1.507 2.201.134 4.467.197 6.928.191zm-.06-5.688c-4.308 0-7.813-3.505-7.813-7.812s3.505-7.813 7.813-7.813S23.75 11.692 23.75 16s-3.505 7.812-7.813 7.812zm0-13.125c-2.929 0-5.313 2.383-5.313 5.313s2.383 5.312 5.313 5.312c2.93 0 5.313-2.383 5.313-5.312s-2.383-5.313-5.313-5.313zm8.688-5a1.875 1.875 0 1 0 0 3.75 1.875 1.875 0 0 0 0-3.75z"/></symbol><symbol id="facebook" viewBox="0 0 32 32"><path d="M22.512.007 18.895 0c-4.064 0-6.69 3.091-6.69 7.875v3.631H8.568c-.314 0-.569.292-.569.653v5.261c0 .361.255.652.569.652h3.637v13.275c0 .36.254.652.569.652h4.745c.314 0 .569-.292.569-.652V18.072h4.252c.314 0 .569-.292.569-.652l.002-5.261c0-.173-.06-.339-.167-.461s-.252-.191-.402-.191h-4.254V8.429c0-1.479.307-2.23 1.987-2.23l2.437-.001c.314 0 .568-.292.568-.652V.661c0-.36-.254-.652-.568-.652z"/></symbol><symbol id="chef-hat" viewBox="0 0 31 32"><path d="M22.224 8.572c-.116 0-.228-.052-.31-.144s-.129-.218-.129-.349c-.034-1.889-.726-3.688-1.927-5.011s-2.816-2.063-4.497-2.063c-1.682 0-3.296.741-4.497 2.063S8.971 6.19 8.937 8.079c0 .131-.046.256-.129.349s-.194.144-.31.144c-.116 0-.228-.052-.31-.144s-.129-.218-.129-.349c.03-2.154.812-4.209 2.178-5.72S13.444 0 15.361 0c1.917 0 3.758.847 5.124 2.359s2.148 3.566 2.178 5.72c0 .131-.046.256-.129.349s-.194.144-.31.144z"/><path d="M23.505 19.732c-.116.001-.228-.05-.311-.142s-.13-.217-.13-.348c-.001-.131.045-.256.127-.35s.193-.146.309-.147c1.671-.011 3.272-.759 4.458-2.082s1.863-3.117 1.884-4.995c-.017-1.896-.702-3.708-1.905-5.037s-2.827-2.068-4.515-2.054a5.847 5.847 0 0 0-1.912.319c-.111.036-.23.022-.331-.04s-.177-.166-.211-.289-.023-.258.03-.373a.454.454 0 0 1 .254-.241 6.653 6.653 0 0 1 2.169-.362c1.92-.014 3.767.829 5.135 2.343s2.146 3.577 2.163 5.734c-.022 2.137-.79 4.179-2.139 5.687s-3.169 2.361-5.071 2.376h-.005zm-16.29 0H7.21c-1.902-.015-3.723-.868-5.071-2.376S.023 13.806 0 11.669c.017-2.158.795-4.22 2.163-5.734s3.215-2.357 5.135-2.343a6.653 6.653 0 0 1 2.169.362c.056.018.108.049.153.09s.083.092.11.149a.542.542 0 0 1-.048.55.457.457 0 0 1-.134.122.401.401 0 0 1-.338.032 5.874 5.874 0 0 0-1.912-.319c-1.688-.014-3.311.725-4.515 2.054S.894 9.773.878 11.669c.022 1.878.698 3.671 1.884 4.995s2.787 2.071 4.458 2.082c.058 0 .115.014.168.039s.101.062.142.108.073.101.094.161a.574.574 0 0 1-.002.378.483.483 0 0 1-.239.265.394.394 0 0 1-.168.036z"/><path d="M23.505 32H7.215c-.116 0-.228-.052-.31-.145s-.129-.218-.129-.349V19.239c0-.131.046-.256.129-.349s.194-.144.31-.144.228.052.31.144a.529.529 0 0 1 .129.349v11.774h15.413V19.239c0-.131.046-.256.128-.349s.194-.144.31-.144c.116 0 .228.052.31.144s.128.218.128.349v12.267c0 .131-.046.256-.128.349s-.194.145-.31.145z"/><path d="M26.56 27.222H10.27c-.116 0-.228-.052-.31-.145s-.129-.218-.129-.349c0-.131.046-.256.129-.349s.194-.145.31-.145h16.29c.116 0 .228.052.31.145s.129.218.129.349c0 .131-.046.256-.129.349s-.194.145-.31.145z"/></symbol><symbol id="humans" viewBox="0 0 31 32"><path d="M11.412 0C8.25 0 5.675 3.077 5.675 6.856s2.575 6.856 5.737 6.856 5.736-3.077 5.736-6.856S14.573 0 11.412 0zm0 12.562c-2.639 0-4.78-2.566-4.78-5.713s2.147-5.713 4.78-5.713c2.64 0 4.78 2.566 4.78 5.713s-2.147 5.713-4.78 5.713zm11.749-9.716c-2.376 0-4.305 2.306-4.305 5.145s1.93 5.145 4.305 5.145c2.376 0 4.305-2.306 4.305-5.145s-1.93-5.145-4.305-5.145zm0 9.155c-1.848 0-3.349-1.795-3.349-4.003s1.502-4.003 3.349-4.003c1.848 0 3.349 1.795 3.349 4.003s-1.502 4.003-3.349 4.003z"/><path d="M30.862 20.679c-.434-3.126-2.059-5.762-4.827-7.143 0 0-1.226 1.108-2.874 1.072-1.801-.042-2.874-1.072-2.874-1.072s-1.337.596-2.416 1.837c-.997-1.058-2.681-1.921-2.681-1.921s-1.543 1.402-3.783 1.381c-2.352-.021-3.772-1.381-3.772-1.381s-5.085 2.089-6.159 9.176c0 0-1.15 3.757 1.513 9.372h16.852s1.197-2.488 1.408-4.003h8.382c2.059-3.729 1.232-7.318 1.232-7.318zM19.248 30.857H3.581c-2.047-4.648-1.161-8.04-1.161-8.04.499-3.554 2.411-6.554 5.144-8.075 2.346 1.647 5.355 1.647 7.702 0 2.733 1.521 4.646 4.521 5.144 8.075-.006 0 .845 4.178-1.161 8.04zm9.825-4.002h-7.631c.293-2.019-.094-4.227-.094-4.227-.346-2.495-1.332-4.746-2.774-6.484a6.944 6.944 0 0 1 1.636-1.318 5.156 5.156 0 0 0 5.895 0c2.024 1.157 3.443 3.393 3.813 6.042 0 0 .698 2.832-.845 5.986z"/></symbol><symbol id="watch" viewBox="0 0 32 32"><path d="M16 0C7.178 0 0 7.178 0 16s7.178 16 16 16 16-7.178 16-16S24.822 0 16 0zm0 30.933C7.766 30.933 1.067 24.234 1.067 16S7.766 1.067 16 1.067 30.933 7.766 30.933 16 24.234 30.933 16 30.933z"/><path d="M16.533 13.878V8.469a.533.533 0 1 0-1.066 0v5.409a2.13 2.13 0 0 0-1.524 1.524h-3.809a.533.533 0 1 0 0 1.066h3.809a2.132 2.132 0 0 0 2.058 1.6 2.135 2.135 0 0 0 2.133-2.133c0-.992-.683-1.819-1.6-2.058zM16 17.002a1.068 1.068 0 0 1 0-2.134 1.068 1.068 0 0 1 0 2.134zm0-11.733a.533.533 0 0 0 .533-.533v-.533a.533.533 0 1 0-1.066 0v.533c0 .295.239.533.533.533zm0 21.333a.533.533 0 0 0-.533.533v.533a.533.533 0 1 0 1.066 0v-.533a.533.533 0 0 0-.533-.533zm11.733-11.2H27.2a.533.533 0 1 0 0 1.066h.533a.533.533 0 1 0 0-1.066zm-22.933 0h-.533a.533.533 0 1 0 0 1.066H4.8a.533.533 0 1 0 0-1.066zm19.119-8.14-.377.377a.532.532 0 0 0 .377.91.532.532 0 0 0 .377-.156l.377-.377a.534.534 0 0 0-.754-.754zM7.703 23.478l-.377.377a.532.532 0 0 0 .377.91.532.532 0 0 0 .377-.156l.377-.377a.534.534 0 0 0-.754-.754zm16.594 0a.533.533 0 1 0-.754.754l.377.377a.532.532 0 1 0 .754-.754l-.377-.377zM8.081 7.261a.533.533 0 1 0-.754.754l.377.377a.532.532 0 1 0 .754-.754l-.377-.377z"/></symbol><symbol id="think-cloud" viewBox="0 0 31 32"><path d="M23.636 14.939c0-6.705-5.914-11.099-11.818-11.099C5.89 3.84 0 8.255 0 14.939c0 2.529.927 5.001 2.609 6.963.064.075.089.189.064.297-.529 2.314-1.78 4.404-2.294 5.196a.922.922 0 0 0-.069.85c.115.272.342.438.596.438h.017c2.514-.075 5.427-.923 7.228-3.039a.23.23 0 0 1 .242-.078 12.54 12.54 0 0 0 3.424.473c5.926 0 11.818-4.414 11.818-11.099zm-15.034 9.58c-.391-.111-.795.023-1.08.358-1.801 2.116-4.742 2.597-6.134 2.704.636-1.049 1.67-2.976 2.155-5.099.111-.485-.006-1.003-.304-1.351C1.71 19.348.901 17.207.901 14.938c0-5.527 4.898-10.024 10.918-10.024s10.918 4.497 10.918 10.024c0 5.527-4.898 10.024-10.918 10.024-1.095 0-2.177-.149-3.216-.444z"/><path d="M26.53 23.875c2.624-1.584 4.19-4.285 4.19-7.224 0-4.154-3.142-7.703-7.471-8.44-.246-.042-.474.163-.509.457s.136.566.382.608c3.881.66 6.698 3.762 6.698 7.375 0 2.525-1.382 4.867-3.696 6.264-.45.272-.691.873-.586 1.461.219 1.232.686 2.373 1.06 3.147-2.657-.529-3.665-2.052-3.983-2.712-.197-.407-.564-.659-.961-.659h-.036c-.499 0-.999-.041-1.485-.123-.245-.041-.474.164-.508.458s.137.566.383.607a9.708 9.708 0 0 0 1.61.133h.037c.075 0 .144.046.181.122 1.219 2.524 4.02 3.169 5.168 3.329.254.035.495-.103.63-.362s.133-.578-.004-.835c-.346-.644-.963-1.932-1.212-3.328-.02-.111.026-.226.112-.278zM4.815 13.016c-.86 0-1.56.836-1.56 1.864s.7 1.864 1.56 1.864c.86 0 1.56-.836 1.56-1.864s-.7-1.864-1.56-1.864zm0 2.652c-.364 0-.66-.354-.66-.788s.296-.788.66-.788.66.354.66.788c0 .435-.296.788-.66.788zm4.45-2.652c-.86 0-1.56.836-1.56 1.864s.7 1.864 1.56 1.864c.86 0 1.56-.836 1.56-1.864s-.7-1.864-1.56-1.864zm0 2.652c-.364 0-.66-.354-.66-.788s.296-.788.66-.788.66.354.66.788c0 .435-.296.788-.66.788zm4.449-2.652c-.86 0-1.56.836-1.56 1.864s.7 1.864 1.56 1.864c.86 0 1.56-.836 1.56-1.864s-.7-1.864-1.56-1.864zm0 2.652c-.364 0-.66-.354-.66-.788s.296-.788.66-.788.66.354.66.788c0 .435-.296.788-.66.788zm4.449-2.652c-.86 0-1.56.836-1.56 1.864s.7 1.864 1.56 1.864c.86 0 1.56-.836 1.56-1.864s-.7-1.864-1.56-1.864zm0 2.652c-.364 0-.66-.354-.66-.788s.296-.788.66-.788.66.354.66.788c0 .435-.296.788-.66.788z"/></symbol><symbol id="star-fill" viewBox="0 0 34 32"><path d="M15.381 2.789c.504-1.552 2.699-1.552 3.204 0l2.51 7.726a1.685 1.685 0 0 0 1.602 1.164h8.124c1.632 0 2.31 2.088.99 3.047l-6.572 4.775a1.685 1.685 0 0 0-.612 1.883l2.51 7.726c.504 1.552-1.272 2.842-2.592 1.883l-6.572-4.775a1.684 1.684 0 0 0-1.98 0l-6.572 4.775c-1.32.959-3.096-.331-2.592-1.883l2.51-7.726a1.685 1.685 0 0 0-.612-1.883l-6.572-4.775c-1.32-.959-.642-3.047.99-3.047h8.124c.73 0 1.376-.47 1.602-1.164l2.51-7.726z"/></symbol><symbol id="star-empty" viewBox="0 0 34 32"><path stroke-width="1.684" d="M15.901 3.049c.252-.776 1.35-.776 1.602 0l2.51 7.726a2.526 2.526 0 0 0 2.403 1.746h8.124c.816 0 1.155 1.044.495 1.523l-6.572 4.775a2.527 2.527 0 0 0-.918 2.824l2.51 7.726c.252.776-.636 1.421-1.296.942l-6.572-4.775a2.528 2.528 0 0 0-2.97 0l-6.572 4.775c-.66.48-1.548-.166-1.296-.942l2.51-7.726a2.525 2.525 0 0 0-.918-2.824l-6.572-4.775c-.66-.479-.321-1.523.495-1.523h8.124a2.528 2.528 0 0 0 2.403-1.746l2.51-7.726z"/></symbol><symbol id="phone" viewBox="0 0 32 32"><path d="M29.43 21.004c-1.959 0-3.882-.306-5.705-.909-.893-.305-1.991-.025-2.536.535l-3.598 2.716c-4.172-2.227-6.743-4.797-8.939-8.938l2.636-3.504a2.585 2.585 0 0 0 .636-2.621 18.192 18.192 0 0 1-.912-5.715A2.57 2.57 0 0 0 8.445 0H2.569A2.57 2.57 0 0 0 .001 2.568C.001 18.797 13.203 32 29.431 32a2.57 2.57 0 0 0 2.568-2.568v-5.86a2.57 2.57 0 0 0-2.568-2.568z"/></symbol><symbol id="location" viewBox="0 0 25 32"><path d="M12.308 0c6.786 0 12.308 5.468 12.308 12.188a12 12 0 0 1-2.455 7.306l-9.094 12.128c-.023.029-.057.041-.083.067-.454.482-1.11.361-1.434-.067-2.619-3.46-7.419-9.922-9.264-12.359l-.001-.003-.011-.015a12.021 12.021 0 0 1-2.273-7.057C.001 5.468 5.522 0 12.309 0zm0 18.762c3.654 0 6.64-2.957 6.64-6.575s-2.986-6.575-6.64-6.575c-3.654 0-6.64 2.957-6.64 6.575s2.986 6.575 6.64 6.575z"/></symbol><symbol id="burger" viewBox="0 0 60 32"><path d="M2 0h56a2 2 0 1 1 0 4H2a2 2 0 1 1 0-4zm0 14h56a2 2 0 1 1 0 4H2a2 2 0 1 1 0-4zm0 14h56a2 2 0 1 1 0 4H2a2 2 0 1 1 0-4z"/></symbol><symbol id="cross" viewBox="0 0 32 32"><path d="M30.355 32a1.646 1.646 0 0 0 1.163-2.811L2.811.482A1.646 1.646 0 1 0 .483 2.811L29.19 31.517a1.65 1.65 0 0 0 1.165.483z"/><path d="M1.645 32c.422 0 .843-.16 1.163-.483L31.517 2.811A1.647 1.647 0 0 0 29.188.482L.481 29.189A1.646 1.646 0 0 0 1.644 32z"/></symbol></defs></svg>