<svg width="158" height="117" viewBox="0 0 158 117" fill="none" xmlns="http://www.w3.org/2000/svg">
<path d="M93.7677 58.4669C93.7677 59.4128 93.7499 60.3587 93.7677 61.306C93.9647 70.9291 92.1351 79.5991 89.1974 87.7743C88.2125 90.5159 87.2711 93.304 86.4229 96.1679C85.7229 98.5223 84.7504 100.173 83.2376 101.137C82.393 101.674 81.6095 102.606 80.9015 103.565C77.6416 107.984 73.9435 111.149 69.9881 113.378C67.3609 114.858 64.6556 116.161 61.8013 116.102C60.9504 116.086 60.0977 116.516 59.2451 116.52C58.3924 116.524 57.5406 116.07 56.696 116.13C53.0156 116.389 49.6058 114.529 46.2209 112.578C42.5263 110.45 39.2639 107.089 36.1948 103.083C31.8641 97.4324 28.7782 90.3151 26.5094 82.1675C25.2868 77.7758 24.2913 73.2429 24.01 68.3695C23.963 67.5604 23.7997 66.76 23.6551 65.9757C22.6259 60.5086 23.2177 55.1477 23.8547 49.7009C24.3418 45.5347 24.8431 41.4195 25.7916 37.4643C28.299 27.003 32.2811 18.4363 37.7963 11.7075C42.3941 6.1036 47.5403 2.65918 53.1354 1.17926C59.5556 -0.518943 65.8233 0.703412 71.9046 4.6717C74.939 6.65802 77.8022 9.17403 80.3026 12.5049C82.6352 15.6118 84.7389 19.2468 86.7264 22.9619C88.5275 26.3292 89.8061 30.3397 90.948 34.4317C92.7314 40.8243 93.8937 47.441 93.7757 54.5496C93.7499 55.8636 93.7686 57.166 93.7677 58.4669ZM91.3029 45.5158C91.1254 43.2821 91.0145 40.6933 90.6818 38.1817C89.7342 30.9538 87.1851 25.312 83.7877 20.7049C81.8588 18.0856 79.756 15.8097 77.6833 13.4945C76.9815 12.7101 76.1661 11.9898 75.3463 11.7483C73.239 11.1109 71.1078 10.5157 68.9722 10.3367C65.2652 10.0268 61.9353 8.45663 59.1368 4.22496C57.0766 1.11232 54.8336 0.811094 52.6926 3.55121C50.2659 6.65366 47.5039 8.47554 44.6886 10.2785C42.6257 11.5998 40.6391 13.2646 38.6552 14.9089C36.9978 16.2855 36.0324 18.4319 36.0555 21.6828C36.0688 23.5061 35.5595 25.0297 34.5312 26.0396C33.673 26.887 32.8488 27.8236 32.0637 28.8438C29.8695 31.6785 28.1597 34.8711 27.7906 39.826C27.4987 43.7448 26.7765 47.6185 25.1404 50.8461C24.5937 51.9568 24.2547 53.3031 24.1644 54.7228C24.0135 57.652 24.0756 60.6162 24.12 63.563C24.1324 64.3517 24.3409 65.1972 24.5867 65.8913C25.1518 67.5313 25.7672 69.1234 26.4304 70.6614C28.0364 74.327 29.433 78.0828 29.7559 82.7394C30.0682 87.2505 31.3956 90.9263 33.6413 93.7319C36.894 97.7977 40.0296 102.114 43.3311 106.073C45.1056 108.207 47.0052 110.072 49.3459 110.504C51.6865 110.937 53.9809 111.983 56.0793 113.918C56.5192 114.307 57.0017 114.55 57.4989 114.633C60.4597 115.157 63.2005 113.953 65.8002 111.679C66.6156 110.966 67.4549 110.318 68.2987 109.698C70.3306 108.205 72.5833 107.224 74.3534 105.145C76.3223 102.827 78.4278 101.798 80.6876 101.15C81.6636 100.87 82.4622 100.209 83.0974 99.0171C83.856 97.6027 84.5579 96.1067 85.3484 94.7403C86.1656 93.3302 86.7556 91.8299 86.8985 89.8203C87.1176 86.7397 87.9206 84.02 88.9392 81.4065C90.664 76.9914 91.6445 72.1122 92.1546 66.9245C92.2886 65.5639 92.3649 64.4128 91.9541 63.2152C90.767 59.7591 91.2514 55.8345 90.8761 52.1558C90.6862 50.1666 91.1236 47.9911 91.3073 45.5114L91.3029 45.5158ZM77.0135 10.9886C76.5122 10.0792 76.3533 9.66734 76.1262 9.41268C75.7163 8.94702 75.2691 8.56723 74.8335 8.16414C71.1069 4.71826 67.0255 3.04334 62.8554 1.83991C62.0178 1.59689 61.1367 1.70603 60.2823 1.75987C60.0596 1.77297 59.7943 2.12803 59.6532 2.44817C59.5884 2.59369 59.734 3.10301 59.8573 3.34603C60.7849 5.16061 61.9947 6.52939 63.3584 7.30703C65.7126 8.69801 68.1876 9.461 70.689 9.56694C71.7484 9.61496 72.8052 9.94383 73.8601 10.1796C74.7598 10.3891 75.6586 10.6409 77.0135 10.9886ZM45.3532 110.296C42.852 106.941 40.6595 103.941 38.4281 101.022C36.5808 98.6067 34.6936 96.2726 32.8055 93.9429C32.5934 93.6809 32.2589 93.6882 31.7949 93.4918C34.0698 99.7607 41.6666 109.285 45.3532 110.296ZM28.5013 31.9913C30.0097 30.0996 31.4053 28.1089 32.9377 26.4616C35.0857 24.1639 35.9073 21.3074 35.3998 16.4034C33.8755 18.4494 32.7886 20.9145 31.613 23.154C30.3708 25.5158 29.4498 28.3286 28.4144 30.9727C28.3345 31.1866 28.4641 31.6086 28.5013 31.9913ZM79.3727 103.535C77.9655 103.377 76.5485 103.784 75.6657 105.031C73.9905 107.396 71.9977 108.585 69.9703 109.768C68.9056 110.388 67.9021 111.299 66.8995 112.168C66.7611 112.287 66.7354 112.926 66.7638 113.303C66.7735 113.429 67.1488 113.637 67.3032 113.551C69.1239 112.533 71.0049 111.712 72.7289 110.35C74.8432 108.685 76.828 106.577 78.851 104.621C79.063 104.426 79.1748 103.965 79.3727 103.535ZM25.6142 70.7443C25.2096 72.7015 25.2894 73.7857 25.5441 74.9396C26.2494 78.141 26.678 81.52 27.9494 84.3168C28.4206 85.3544 28.5173 87.6739 29.3868 87.1733C30.1525 86.7368 29.2564 84.9004 29.204 83.662C29.0035 78.9312 27.4881 75.1186 25.6142 70.7443ZM39.263 11.8312L39.452 12.2983C40.5034 11.658 41.5645 11.0527 42.6053 10.3673C44.8672 8.87815 47.1221 7.36136 49.3698 5.81693C49.8232 5.50261 50.2384 4.99911 50.6253 4.4898C50.7335 4.34428 50.714 3.85534 50.6803 3.55266C50.6626 3.41733 50.4487 3.27036 50.3254 3.26163C50.1145 3.26918 49.9054 3.32601 49.7043 3.43042C46.6486 4.85505 43.7667 6.96361 41.0091 9.52328C40.3641 10.1228 39.8406 11.0541 39.263 11.8312ZM92.9292 62.639C93.1138 62.2868 93.2584 62.1398 93.2682 61.9739C93.5663 56.8197 93.2336 51.712 92.8032 46.6174C92.7819 46.3613 92.5655 45.9946 92.4182 45.964C92.2558 45.9291 92.0029 46.1503 91.9044 46.3889C91.7426 46.7668 91.6418 47.2059 91.6116 47.6651C91.4495 51.8668 91.6183 56.0852 92.1138 60.2161C92.2114 61.0499 92.632 61.7833 92.9292 62.639ZM24.876 48.416C26.0684 47.6695 26.2468 46.3176 26.3746 45.0982C26.686 42.1223 27.465 39.2585 27.2077 36.1124C25.9611 39.8668 24.8556 43.6706 24.8768 48.416H24.876ZM53.7369 113.742C51.0636 111.801 50.3387 111.597 47.9591 112.141C48.9679 112.769 49.8756 113.765 50.7886 113.781C51.7406 113.805 52.7716 115.718 53.7378 113.742H53.7369Z" fill="#2E2520"/>
<path d="M59.2495 75.1404C57.4217 75.0866 56.1663 73.8308 55.2364 71.405C54.3704 69.1422 52.9295 67.9678 51.6102 66.5738C49.9465 64.8174 48.5934 62.8354 48.2093 59.2746C47.9431 56.8604 48.2527 54.7635 48.8499 52.8572C49.3512 51.2638 50.2455 49.7839 51.1852 48.8365C52.2037 47.8092 53.0484 46.84 53.5187 44.9425C54.051 42.7597 55.3926 42.6273 56.5806 42.2344C57.6995 41.8647 58.8369 41.6275 59.9398 41.1648C61.4482 40.5332 62.8172 40.7282 63.9192 42.6564C64.771 44.1523 65.7656 45.2248 66.8747 46.1328C68.0281 47.0758 68.4088 48.1773 68.0476 50.1477C67.8019 51.485 68.0396 52.3959 68.3431 53.464C68.6749 54.6282 69.0165 55.8112 69.2446 57.0409C70.0041 61.1328 69.1301 64.5773 66.7913 66.3991C65.3415 67.5284 64.2315 69.033 63.8704 71.68C63.7258 72.7467 63.3203 73.352 62.7471 73.6285C61.5901 74.1844 60.4163 74.6428 59.2495 75.1404ZM66.9226 57.9853C66.9598 50.7763 63.6308 45.0123 59.3019 45.0036C55.4174 45.0036 51.5099 49.3182 51.3582 57.5866C51.2366 64.2047 54.5949 70.3689 58.9727 70.3922C64.3043 70.4358 66.8188 64.359 66.9226 57.9853ZM51.3156 64.877C51.3156 63.953 51.3697 63.48 51.3076 63.0537C50.7335 59.1378 50.36 55.2597 51.6625 51.4879C51.7565 51.2172 51.5401 50.6584 51.4673 50.2335C51.2118 50.3688 50.903 50.3965 50.7096 50.657C48.558 53.5557 47.5979 60.5158 51.3156 64.877ZM59.3063 43.1948C60.2069 43.7361 60.7206 44.1203 61.2583 44.3589C63.2413 45.2204 64.9333 46.7687 66.1107 49.6238C66.3432 50.1855 66.6431 51.0208 67.0867 50.3805C67.3227 50.0385 67.3999 48.9937 67.2642 48.4713C67.0805 47.7772 66.6635 46.9113 66.2625 46.7745C65.1729 46.4005 64.5767 45.1054 63.8668 43.9762C62.6726 42.0947 61.339 41.5039 59.3063 43.1948ZM59.1839 71.5709L59.1572 71.2988C58.5858 71.2988 58.0091 71.2187 57.4466 71.3322C57.1573 71.3904 56.8947 71.7935 56.6205 72.0409C56.8699 72.4032 57.0872 72.9737 57.3747 73.0915C58.9115 73.7274 60.4606 73.8642 61.9761 72.8907C62.2352 72.7234 62.5235 72.5051 62.6859 72.1631C62.8296 71.8721 62.8767 71.3555 62.8474 70.9641C62.8358 70.8185 62.4774 70.5988 62.2999 70.6454C61.2592 70.9131 60.2228 71.2507 59.1883 71.5665L59.1839 71.5709ZM67.0433 64.1771C68.108 63.8526 68.5835 62.8674 68.6457 61.3526C68.6916 60.0758 68.6804 58.7952 68.6119 57.5211C68.5951 57.1849 68.3094 56.8852 68.147 56.5679C67.9101 56.9361 67.4292 57.4308 67.4727 57.652C67.9048 59.8625 67.0015 61.8415 67.0433 64.1727V64.1771Z" fill="#2E2520"/>
<path d="M76.7828 74.1582C76.7215 74.2091 76.4749 74.5482 76.2078 74.5947C75.9647 74.6413 75.6098 74.5074 75.459 74.228C74.7021 72.8267 73.9675 71.3861 73.2905 69.88C73.113 69.4856 73.0403 68.4248 73.1414 68.3331C73.4742 68.0319 74.1245 67.7176 74.2691 67.978C75.1254 69.5278 75.8786 71.2318 76.6523 72.9024C76.7278 73.0697 76.7047 73.3564 76.7828 74.1582Z" fill="#2E2520"/>
<path d="M40.5353 86.2959C40.931 86.3483 41.7127 86.3876 42.4749 86.6015C42.6647 86.6553 42.9185 87.265 42.9185 87.6288C42.9185 87.9926 42.6993 88.6213 42.5095 88.6984C41.0277 89.3023 39.5531 89.4507 38.2417 87.8253C38.1677 87.7121 38.1103 87.5726 38.0742 87.4175C38.0381 87.2623 38.024 87.0957 38.0332 86.9303C38.0616 86.6873 38.2914 86.3483 38.4458 86.3308C39.0145 86.2522 39.585 86.2959 40.5353 86.2959Z" fill="#2E2520"/>
<path d="M86.9677 35.1229L87.5284 35.6264C87.3696 36.0935 87.272 36.8444 87.0405 36.9797C85.9735 37.6232 84.8788 38.1359 83.7655 38.5135C83.4452 38.6168 82.9803 38.1002 82.6849 37.6738C82.3442 37.1805 82.5473 36.1095 82.9768 36.0018C84.2393 35.6831 85.5108 35.4387 86.9677 35.1229Z" fill="#2E2520"/>
<path d="M49.2509 96.715C49.8436 97.169 50.3396 97.2971 50.5818 97.7816C51.2451 99.1321 51.8519 100.555 52.398 102.04C52.6642 102.747 52.4211 103.512 51.973 103.716C51.7273 103.828 51.2819 103.499 51.1009 103.134C50.3776 101.705 49.7074 100.206 49.0939 98.6446C48.9519 98.2735 49.1719 97.5285 49.2509 96.715Z" fill="#2E2520"/>
<path d="M72.5061 40.4037C72.5434 39.9905 72.5061 39.5175 72.6242 39.3356C72.7839 39.097 73.1263 38.8991 73.2905 39.0286C73.515 39.2047 73.6605 39.6878 73.8149 40.0676C74.2443 41.124 74.6693 42.1863 75.0783 43.269C75.2611 43.7536 75.5069 44.2702 75.522 44.7926C75.5397 45.2757 75.3605 45.9029 75.1387 46.2347C75.0153 46.4209 74.5069 46.3001 74.3818 46.0426C73.562 44.3327 72.5789 42.732 72.5061 40.4037Z" fill="#2E2520"/>
<path d="M75.057 22.2372C74.8796 23.9834 74.8086 25.2684 74.6019 26.4995C74.4723 27.1645 74.2253 27.7515 73.8921 28.186C73.6569 28.4974 73.247 28.4523 72.9161 28.5658C72.8894 28.058 72.7927 27.5283 72.8486 27.0466C73.0216 25.5594 73.2532 24.0897 73.4608 22.6141C73.4768 22.4992 73.4724 22.3769 73.4928 22.2649C73.656 21.3743 74.0092 20.6962 74.5744 21.0643C74.8592 21.2506 74.9923 22.067 75.057 22.2372Z" fill="#2E2520"/>
<path d="M59.7588 33.5935C60.2574 33.6953 60.9025 33.7506 61.5183 33.9951C61.7285 34.0781 62.0391 34.6994 62.0027 34.9672C61.9388 35.4459 61.6957 36.076 61.4393 36.2186C61.0328 36.4268 60.5977 36.4303 60.19 36.2288C59.4802 35.8577 58.8192 35.7341 58.1112 36.2201C57.6462 36.5402 57.2097 36.2041 57.0855 35.4445C56.9196 34.4258 57.3863 33.9325 57.9106 33.7885C58.4696 33.6357 59.0472 33.6604 59.7588 33.5935Z" fill="#2E2520"/>
<path d="M70.8257 83.7624C70.6243 85.2074 70.4708 86.4749 70.2534 87.7132C70.2108 87.9563 69.8985 88.2837 69.7672 88.2284C69.5311 88.1338 69.1993 87.8282 69.1514 87.511C69.0453 86.8259 69.0331 86.1107 69.1159 85.417C69.2827 84.148 69.4469 82.9431 69.1337 81.6466C68.9846 81.0252 69.0272 80.0342 69.6021 80.0371C69.9118 80.0371 70.3572 80.6658 70.4965 81.1853C70.7227 82.0162 70.7378 82.9941 70.8257 83.7624Z" fill="#2E2520"/>
<path d="M62.095 83.3913C61.9796 83.7304 61.9237 84.1306 61.772 84.3023C60.8377 85.3587 59.9017 86.4196 58.9186 87.3436C58.6675 87.5794 58.2265 87.4338 57.9062 87.2781C57.4368 87.0497 57.3392 86.0368 57.7287 85.6265C58.8041 84.4958 59.8857 83.3739 60.9939 82.3319C61.1713 82.1646 61.5262 82.345 61.7552 82.5313C61.9104 82.6594 61.977 83.0726 62.095 83.3913Z" fill="#2E2520"/>
<path d="M50.1914 15.5084C50.3431 15.654 50.6288 15.782 50.667 16.0119C51.0379 18.2544 51.3954 20.5041 51.69 22.7742C51.7716 23.4043 51.2632 23.755 50.9225 23.3781C49.8498 22.1936 49.1817 17.8062 49.8072 15.9712C49.872 15.7893 50.0299 15.6976 50.1914 15.5084Z" fill="#2E2520"/>
<path d="M63.4472 21.8778C63.1242 21.5242 62.7755 21.3437 62.7285 21.0382C62.6779 20.7064 62.8447 20.1403 63.0257 19.874C63.8129 18.7199 64.6362 17.6338 65.4923 16.6202C65.7807 16.287 66.3796 16.0512 66.6014 16.3117C67.1249 16.9156 66.8498 17.7669 66.4852 18.3897C65.9954 19.2294 65.5092 20.1141 64.9449 20.7922C64.5119 21.303 63.9565 21.5227 63.4472 21.8778Z" fill="#2E2520"/>
<path d="M43.0498 33.7259L42.2655 34.9424C42.0419 34.5452 41.71 34.2148 41.616 33.7405C41.2398 31.8836 40.9248 29.9933 40.6258 28.0987C40.585 27.8382 40.7145 27.3056 40.8476 27.2154C41.065 27.0699 41.4226 27.0117 41.5876 27.2154C41.9132 27.6098 42.285 28.138 42.3915 28.7302C42.671 30.2727 42.8182 31.8851 43.0498 33.7259Z" fill="#2E2520"/>
<path d="M34.4629 64.8508C33.7433 67.0147 33.1967 69.2309 31.857 70.4111C31.6316 70.609 31.133 70.3558 30.8916 70.04C30.4817 69.506 30.8916 69.0621 31.0913 68.6067C31.7203 67.1864 32.3015 65.705 32.9696 64.3386C33.1417 63.9879 33.5791 63.8148 33.8764 63.8628C34.0787 63.8933 34.2437 64.4579 34.4629 64.8508Z" fill="#2E2520"/>
<path d="M42.5911 65.0342C42.9664 65.3907 43.2388 65.4969 43.2894 65.7312C43.3728 66.1154 43.4163 66.7193 43.2894 66.9856C43.0835 67.4105 42.7313 67.655 42.4278 67.9402C41.6408 68.6809 40.8645 69.4623 40.0464 70.0938C39.7971 70.2859 39.3455 70.2277 39.1237 69.9687C38.6667 69.4347 38.8273 68.579 39.1946 68.2021C40.3179 67.0481 41.4989 66.0383 42.5911 65.0342Z" fill="#2E2520"/>
<path d="M83.2704 55.235C82.9812 56.3045 82.5748 57.9183 82.093 59.4696C82.0185 59.7097 81.5518 59.8406 81.354 59.6966C81.1703 59.5612 80.9698 58.9544 81.007 58.6256C81.2005 56.9012 81.4143 55.1709 81.7399 53.5062C81.8393 52.9984 82.2882 52.5371 82.6334 52.3668C82.7612 52.3042 83.0957 53.0944 83.2545 53.5775C83.345 53.8496 83.2704 54.2687 83.2704 55.235Z" fill="#2E2520"/>
<path d="M34.2375 42.377C35.5107 44.2512 35.359 46.7964 35.5001 49.1465C35.5267 49.583 35.1957 50.2073 34.9313 50.5231C34.7929 50.689 34.2304 50.4227 34.2171 50.2699C34.0166 47.8965 33.8622 45.51 33.7388 43.1206C33.7291 42.9168 34.0281 42.668 34.2375 42.377Z" fill="#2E2520"/>
<path d="M63.9902 100.414C64.2036 100.507 64.4137 100.619 64.6192 100.752C65.3841 101.334 66.1533 101.9 66.8995 102.54C67.2544 102.843 67.6093 103.221 67.8649 103.704C68.1585 104.264 67.8232 105.34 67.4124 105.193C66.0247 104.701 64.6689 104.014 63.6308 102.312C63.4773 102.06 63.4809 101.43 63.5306 101.012C63.5599 100.776 63.8278 100.613 63.9902 100.414Z" fill="#2E2520"/>
<path d="M47.1028 43.0624C47.1765 43.4393 47.4285 44.0242 47.3397 44.3909C46.8739 46.3336 46.3345 48.2312 45.7853 50.1156C45.7178 50.347 45.4304 50.5522 45.26 50.5144C45.1109 50.4838 44.9051 50.1404 44.8661 49.8799C44.575 47.7801 45.4925 44.0213 46.5155 43.0755C46.6211 42.978 46.7896 43.0624 47.1028 43.0624Z" fill="#2E2520"/>
<path d="M86.7822 74.944C86.6225 74.7781 86.2898 74.5758 86.1168 74.1844C86.0476 74.0287 86.2712 73.3185 86.4637 73.0915C87.3173 72.0729 88.1886 71.0994 89.0971 70.2292C89.342 69.9949 89.8513 69.9774 90.0314 70.2408C90.1973 70.4853 90.2222 71.405 90.0722 71.7426C89.311 73.483 88.3509 74.8101 86.7822 74.944Z" fill="#2E2520"/>
<path d="M81.5101 89.9295C80.8518 89.8174 80.5652 89.8058 80.291 89.7054C80.1748 89.6632 80.0018 89.4376 80 89.2907C79.9877 88.9596 80.0402 88.6307 80.1499 88.3521C80.2912 88.089 80.4762 87.8993 80.6823 87.8064C81.6973 87.3058 82.7132 86.8037 83.7434 86.3978C83.967 86.3104 84.4381 86.552 84.4674 86.7616C84.5348 87.2592 84.4541 87.8602 84.3352 88.3623C84.2722 88.6271 84.0211 88.8483 83.8285 88.9443C82.9466 89.3416 82.0611 89.6967 81.5101 89.9295Z" fill="#2E2520"/>
<path d="M50.9465 77.9024C50.8737 78.4102 50.7557 79.5351 50.5277 80.5959C50.4709 80.8593 50.0273 81.1125 49.8232 81.0165C49.6191 80.9204 49.3796 80.3689 49.3858 80.024C49.4071 78.061 49.4665 76.095 49.5881 74.1407C49.6138 73.7144 49.943 73.3389 50.1329 72.9402C50.36 73.3346 50.7282 73.6823 50.7859 74.1349C50.9145 75.1477 50.887 76.2129 50.9465 77.9024Z" fill="#2E2520"/>
<path d="M98.5134 16.4774C98.5134 12.3188 99.1264 9.16561 100.352 7.01778C101.592 4.84709 103.181 3.76175 105.117 3.76175C107.054 3.76175 108.593 4.69857 109.735 6.57222C110.892 8.44586 111.47 11.4391 111.47 15.552C111.47 19.6649 110.857 22.7724 109.631 24.8745C108.405 26.9766 106.768 28.0277 104.72 28.0277C102.951 28.0277 101.502 27.1937 100.373 25.5257C99.7881 24.6574 99.3284 23.4578 98.994 21.9269C98.6736 20.3732 98.5134 18.5567 98.5134 16.4774ZM105.054 4.10449C103.647 4.10449 102.491 5.13271 101.585 7.18915C100.694 9.24558 100.248 12.2617 100.248 16.2375C100.248 20.2132 100.673 23.1151 101.523 24.9431C102.372 26.771 103.501 27.685 104.908 27.685C106.329 27.685 107.485 26.6568 108.377 24.6003C109.283 22.521 109.735 19.5163 109.735 15.5863C109.735 11.6333 109.304 8.73147 108.44 6.88068C107.59 5.02989 106.461 4.10449 105.054 4.10449Z" fill="#2E2520"/>
<path d="M115.084 27.8906H113.35V3.89885H115.084V14.9351H121.876V3.89885H123.611V27.8906H121.876V15.2778H115.084V27.8906Z" fill="#2E2520"/>
<path d="M132.527 27.8906H132.255L134.073 3.89885H134.763L139.151 26.0741L143.519 3.89885H144.209L146.027 27.8906H144.292L142.85 8.6972L139.068 27.8906H137.751L133.927 8.93712L132.527 27.8906Z" fill="#2E2520"/>
<path d="M157.603 3.89885C157.868 4.33298 158 4.89279 158 5.57827C158 6.1495 157.923 6.73216 157.77 7.32624L154.029 19.7677V27.8906H152.295V20.5217L148.115 3.89885H149.892L153.883 19.3564L157.519 7.32624C157.673 6.75501 157.749 6.16093 157.749 5.544C157.749 4.92707 157.645 4.44723 157.436 4.10449L157.603 3.89885Z" fill="#2E2520"/>
<path d="M2.94608 34.1945C4.0263 34.1139 5.08198 34.0737 6.11311 34.0737C7.16879 34.0737 8.27357 34.2549 9.42745 34.6173C10.6059 34.9796 11.7598 35.6641 12.8891 36.6708C14.043 37.6371 15.0127 38.9055 15.7983 40.4758C16.6085 42.0059 17.2591 44.0393 17.7501 46.576C18.2411 49.1126 18.4866 52.1929 18.4866 55.8168C18.4866 59.4406 18.1184 62.7021 17.3819 65.6011C16.6699 68.4599 15.6879 70.6544 14.4358 72.1845C12.0053 75.1641 9.07146 76.6539 5.63437 76.6539C4.43139 76.6539 3.16703 76.5733 1.8413 76.4123H0V34.1945H2.94608ZM3.05655 75.9291C3.57212 76.0096 4.22271 76.0499 5.00833 76.0499C5.79395 76.0499 6.38317 76.0298 6.77598 75.9895C7.16879 75.9492 7.7089 75.7882 8.39632 75.5063C9.08374 75.1842 9.72205 74.7614 10.3113 74.238C10.9005 73.7145 11.5142 72.9495 12.1526 71.9429C12.8154 70.896 13.3801 69.6679 13.8466 68.2586C14.9022 64.9569 15.4301 60.6485 15.4301 55.3336C15.4301 51.5487 15.1477 48.2872 14.5831 45.5492C14.0184 42.7709 13.3678 40.7174 12.6313 39.3887C11.9193 38.0599 11.0478 37.013 10.0167 36.248C8.98553 35.4427 8.16309 34.9796 7.54932 34.8589C6.93556 34.7381 6.22359 34.6777 5.41342 34.6777C4.60325 34.6777 3.81762 34.7381 3.05655 34.8589V75.9291Z" fill="#2E2520"/>
<path d="M99.1112 76.4123H98.6324V34.1341H99.8845L115.204 73.2112V34.1341H115.683V76.4123H112.995L99.1112 41.3818V76.4123Z" fill="#2E2520"/>
<path d="M138.359 34.1341H138.838V58.293C138.838 64.6146 138.077 69.2652 136.555 72.2449C135.033 75.1842 133.044 76.6539 130.589 76.6539C129.042 76.6539 127.729 76.4324 126.649 75.9895C125.568 75.5063 124.55 74.6406 123.592 73.3924C121.628 70.896 120.646 65.8629 120.646 58.293V34.1341H123.703V58.2327C123.703 65.5609 124.378 70.4531 125.728 72.9092C126.415 74.1172 127.127 74.9426 127.864 75.3855C128.625 75.8284 129.533 76.0499 130.589 76.0499C132.946 76.0499 134.824 74.6406 136.223 71.8221C137.647 68.9633 138.359 64.4335 138.359 58.2327V34.1341Z" fill="#2E2520"/>
<path d="M151.401 76.4123H148.344V34.7381H141.973V34.1341H157.809V34.7381H151.401V76.4123Z" fill="#2E2520"/>
</svg>
