<!-- Generated by IcoMoon.io -->
<svg version="1.1" xmlns="http://www.w3.org/2000/svg" width="31" height="32" viewBox="0 0 31 32">
<title>chef-hat</title>
<path d="M22.224 8.572c-0.116 0-0.228-0.052-0.31-0.144s-0.129-0.218-0.129-0.349c-0.034-1.889-0.726-3.688-1.927-5.011s-2.816-2.063-4.497-2.063c-1.682 0-3.296 0.741-4.497 2.063s-1.893 3.122-1.927 5.011c0 0.131-0.046 0.256-0.129 0.349s-0.194 0.144-0.31 0.144c-0.116 0-0.228-0.052-0.31-0.144s-0.129-0.218-0.129-0.349c0.030-2.154 0.812-4.209 2.178-5.72s3.207-2.359 5.124-2.359c1.917 0 3.758 0.847 5.124 2.359s2.148 3.566 2.178 5.72c0 0.131-0.046 0.256-0.129 0.349s-0.194 0.144-0.31 0.144z"></path>
<path d="M23.505 19.732c-0.116 0.001-0.228-0.050-0.311-0.142s-0.13-0.217-0.13-0.348c-0.001-0.131 0.045-0.256 0.127-0.35s0.193-0.146 0.309-0.147c1.671-0.011 3.272-0.759 4.458-2.082s1.863-3.117 1.884-4.995c-0.017-1.896-0.702-3.708-1.905-5.037s-2.827-2.068-4.515-2.054c-0.648-0.001-1.292 0.106-1.912 0.319-0.111 0.036-0.23 0.022-0.331-0.040s-0.177-0.166-0.211-0.289-0.023-0.258 0.030-0.373c0.053-0.115 0.145-0.202 0.254-0.241 0.703-0.241 1.434-0.363 2.169-0.362 1.92-0.014 3.767 0.829 5.135 2.343s2.146 3.577 2.163 5.734c-0.022 2.137-0.79 4.179-2.139 5.687s-3.169 2.361-5.071 2.376h-0.005z"></path>
<path d="M7.215 19.732h-0.005c-1.902-0.015-3.723-0.868-5.071-2.376s-2.116-3.55-2.139-5.687c0.017-2.158 0.795-4.22 2.163-5.734s3.215-2.357 5.135-2.343c0.735-0.001 1.466 0.121 2.169 0.362 0.056 0.018 0.108 0.049 0.153 0.090s0.083 0.092 0.11 0.149c0.028 0.058 0.045 0.121 0.051 0.186s-0 0.131-0.017 0.193c-0.017 0.063-0.045 0.121-0.082 0.171s-0.083 0.092-0.134 0.122c-0.052 0.030-0.108 0.049-0.166 0.054s-0.116-0.002-0.172-0.022c-0.62-0.212-1.264-0.32-1.912-0.319-1.688-0.014-3.311 0.725-4.515 2.054s-1.889 3.141-1.905 5.037c0.022 1.878 0.698 3.671 1.884 4.995s2.787 2.071 4.458 2.082c0.058 0 0.115 0.014 0.168 0.039s0.101 0.062 0.142 0.108 0.073 0.101 0.094 0.161c0.022 0.060 0.033 0.124 0.032 0.189s-0.012 0.129-0.034 0.189c-0.022 0.060-0.055 0.114-0.096 0.159s-0.090 0.082-0.143 0.106-0.111 0.037-0.168 0.036z"></path>
<path d="M23.505 32h-16.29c-0.116 0-0.228-0.052-0.31-0.145s-0.129-0.218-0.129-0.349v-12.267c0-0.131 0.046-0.256 0.129-0.349s0.194-0.144 0.31-0.144 0.228 0.052 0.31 0.144c0.082 0.093 0.129 0.218 0.129 0.349v11.774h15.413v-11.774c0-0.131 0.046-0.256 0.128-0.349s0.194-0.144 0.31-0.144c0.116 0 0.228 0.052 0.31 0.144s0.128 0.218 0.128 0.349v12.267c0 0.131-0.046 0.256-0.128 0.349s-0.194 0.145-0.31 0.145z"></path>
<path d="M26.56 27.222h-16.29c-0.116 0-0.228-0.052-0.31-0.145s-0.129-0.218-0.129-0.349c0-0.131 0.046-0.256 0.129-0.349s0.194-0.145 0.31-0.145h16.29c0.116 0 0.228 0.052 0.31 0.145s0.129 0.218 0.129 0.349c0 0.131-0.046 0.256-0.129 0.349s-0.194 0.145-0.31 0.145z"></path>
</svg>
