<!-- Generated by IcoMoon.io -->
<svg version="1.1" xmlns="http://www.w3.org/2000/svg" width="31" height="32" viewBox="0 0 31 32">
<title>humans</title>
<path d="M11.412 0c-3.162 0-5.737 3.077-5.737 6.856s2.575 6.856 5.737 6.856c3.162 0 5.736-3.077 5.736-6.856s-2.575-6.856-5.736-6.856zM11.412 12.562c-2.639 0-4.78-2.566-4.78-5.713s2.147-5.713 4.78-5.713c2.64 0 4.78 2.566 4.78 5.713s-2.147 5.713-4.78 5.713z"></path>
<path d="M23.161 2.846c-2.376 0-4.305 2.306-4.305 5.145s1.93 5.145 4.305 5.145c2.376 0 4.305-2.306 4.305-5.145s-1.93-5.145-4.305-5.145zM23.161 12.001c-1.848 0-3.349-1.795-3.349-4.003s1.502-4.003 3.349-4.003c1.848 0 3.349 1.795 3.349 4.003s-1.502 4.003-3.349 4.003z"></path>
<path d="M30.862 20.679c-0.434-3.126-2.059-5.762-4.827-7.143 0 0-1.226 1.108-2.874 1.072-1.801-0.042-2.874-1.072-2.874-1.072s-1.337 0.596-2.416 1.837c-0.997-1.058-2.681-1.921-2.681-1.921s-1.543 1.402-3.783 1.381c-2.352-0.021-3.772-1.381-3.772-1.381s-5.085 2.089-6.159 9.176c0 0-1.15 3.757 1.513 9.372h16.852c0 0 1.197-2.488 1.408-4.003h8.382c2.059-3.729 1.232-7.318 1.232-7.318zM19.248 30.857h-15.667c-2.047-4.648-1.161-8.040-1.161-8.040 0.499-3.554 2.411-6.554 5.144-8.075 2.346 1.647 5.355 1.647 7.702 0 2.733 1.521 4.646 4.521 5.144 8.075-0.006 0 0.845 4.178-1.161 8.040zM29.073 26.855h-7.631c0.293-2.019-0.094-4.227-0.094-4.227-0.346-2.495-1.332-4.746-2.774-6.484 0.493-0.533 1.038-0.974 1.636-1.318 1.801 1.234 4.094 1.234 5.895 0 2.024 1.157 3.443 3.393 3.813 6.042 0 0 0.698 2.832-0.845 5.986z"></path>
</svg>
