<!-- Generated by IcoMoon.io -->
<svg version="1.1" xmlns="http://www.w3.org/2000/svg" width="34" height="32" viewBox="0 0 34 32">
<title>star-empty</title>
<path fill="none" stroke-linejoin="miter" stroke-linecap="butt" stroke-miterlimit="4" stroke-width="1.6842" stroke="#000" d="M15.901 3.049c0.252-0.776 1.35-0.776 1.602-0l2.51 7.726c0.338 1.041 1.308 1.746 2.403 1.746h8.124c0.816 0 1.155 1.044 0.495 1.523l-6.572 4.775c-0.885 0.643-1.256 1.784-0.918 2.824l2.51 7.726c0.252 0.776-0.636 1.421-1.296 0.942l-6.572-4.775c-0.885-0.643-2.084-0.643-2.97 0l-6.572 4.775c-0.66 0.48-1.548-0.166-1.296-0.942l2.51-7.726c0.338-1.041-0.032-2.181-0.918-2.824l-6.572-4.775c-0.66-0.479-0.321-1.523 0.495-1.523h8.124c1.094 0 2.064-0.705 2.403-1.746l2.51-7.726z"></path>
</svg>
