<!-- Generated by IcoMoon.io -->
<svg version="1.1" xmlns="http://www.w3.org/2000/svg" width="34" height="32" viewBox="0 0 34 32">
<title>star-fill</title>
<path d="M15.381 2.789c0.504-1.552 2.699-1.552 3.204 0l2.51 7.726c0.226 0.694 0.872 1.164 1.602 1.164h8.124c1.632 0 2.31 2.088 0.99 3.047l-6.572 4.775c-0.59 0.429-0.837 1.189-0.612 1.883l2.51 7.726c0.504 1.552-1.272 2.842-2.592 1.883l-6.572-4.775c-0.59-0.429-1.39-0.429-1.98 0l-6.572 4.775c-1.32 0.959-3.096-0.331-2.592-1.883l2.51-7.726c0.225-0.694-0.022-1.454-0.612-1.883l-6.572-4.775c-1.32-0.959-0.642-3.047 0.99-3.047h8.124c0.73 0 1.376-0.47 1.602-1.164l2.51-7.726z"></path>
</svg>
