<!-- Generated by IcoMoon.io -->
<svg version="1.1" xmlns="http://www.w3.org/2000/svg" width="31" height="32" viewBox="0 0 31 32">
<title>think-cloud</title>
<path d="M23.636 14.939c0-6.705-5.914-11.099-11.818-11.099-5.928 0-11.818 4.415-11.818 11.099 0 2.529 0.927 5.001 2.609 6.963 0.064 0.075 0.089 0.189 0.064 0.297-0.529 2.314-1.78 4.404-2.294 5.196-0.16 0.246-0.186 0.572-0.069 0.85 0.115 0.272 0.342 0.438 0.596 0.438 0.006 0 0.011 0 0.017-0 2.514-0.075 5.427-0.923 7.228-3.039 0.063-0.074 0.153-0.103 0.242-0.078 1.107 0.314 2.258 0.473 3.424 0.473 5.926-0 11.818-4.414 11.818-11.099zM8.602 24.519c-0.391-0.111-0.795 0.023-1.080 0.358-1.801 2.116-4.742 2.597-6.134 2.704 0.636-1.049 1.67-2.976 2.155-5.099 0.111-0.485-0.006-1.003-0.304-1.351-1.529-1.783-2.338-3.924-2.338-6.193 0-5.527 4.898-10.024 10.918-10.024s10.918 4.497 10.918 10.024c0 5.527-4.898 10.024-10.918 10.024-1.095 0-2.177-0.149-3.216-0.444z"></path>
<path d="M26.53 23.875c2.624-1.584 4.19-4.285 4.19-7.224 0-4.154-3.142-7.703-7.471-8.44-0.246-0.042-0.474 0.163-0.509 0.457s0.136 0.566 0.382 0.608c3.881 0.66 6.698 3.762 6.698 7.375 0 2.525-1.382 4.867-3.696 6.264-0.45 0.272-0.691 0.873-0.586 1.461 0.219 1.232 0.686 2.373 1.060 3.147-2.657-0.529-3.665-2.052-3.983-2.712-0.197-0.407-0.564-0.659-0.961-0.659-0.001 0-0.002 0-0.003 0h-0.033c-0.499 0-0.999-0.041-1.485-0.123-0.245-0.041-0.474 0.164-0.508 0.458s0.137 0.566 0.383 0.607c0.528 0.089 1.069 0.133 1.61 0.133h0.037c0.075 0 0.144 0.046 0.181 0.122 1.219 2.524 4.020 3.169 5.168 3.329 0.254 0.035 0.495-0.103 0.63-0.362s0.133-0.578-0.004-0.835c-0.346-0.644-0.963-1.932-1.212-3.328-0.020-0.111 0.026-0.226 0.112-0.278z"></path>
<path d="M4.815 13.016c-0.86 0-1.56 0.836-1.56 1.864s0.7 1.864 1.56 1.864c0.86 0 1.56-0.836 1.56-1.864s-0.7-1.864-1.56-1.864zM4.815 15.668c-0.364 0-0.66-0.354-0.66-0.788s0.296-0.788 0.66-0.788 0.66 0.354 0.66 0.788c0 0.435-0.296 0.788-0.66 0.788z"></path>
<path d="M9.265 13.016c-0.86 0-1.56 0.836-1.56 1.864s0.7 1.864 1.56 1.864c0.86 0 1.56-0.836 1.56-1.864s-0.7-1.864-1.56-1.864zM9.265 15.668c-0.364 0-0.66-0.354-0.66-0.788s0.296-0.788 0.66-0.788 0.66 0.354 0.66 0.788c0 0.435-0.296 0.788-0.66 0.788z"></path>
<path d="M13.714 13.016c-0.86 0-1.56 0.836-1.56 1.864s0.7 1.864 1.56 1.864c0.86 0 1.56-0.836 1.56-1.864s-0.7-1.864-1.56-1.864zM13.714 15.668c-0.364 0-0.66-0.354-0.66-0.788s0.296-0.788 0.66-0.788 0.66 0.354 0.66 0.788c0 0.435-0.296 0.788-0.66 0.788z"></path>
<path d="M18.163 13.016c-0.86 0-1.56 0.836-1.56 1.864s0.7 1.864 1.56 1.864c0.86 0 1.56-0.836 1.56-1.864s-0.7-1.864-1.56-1.864zM18.163 15.668c-0.364 0-0.66-0.354-0.66-0.788s0.296-0.788 0.66-0.788 0.66 0.354 0.66 0.788c0 0.435-0.296 0.788-0.66 0.788z"></path>
</svg>
