<?xml version="1.0" standalone="no"?>
<!DOCTYPE svg PUBLIC "-//W3C//DTD SVG 20010904//EN"
 "http://www.w3.org/TR/2001/REC-SVG-20010904/DTD/svg10.dtd">
<svg version="1.0" xmlns="http://www.w3.org/2000/svg"
 width="1225.000000pt" height="1225.000000pt" viewBox="0 0 1225.000000 1225.000000"
 preserveAspectRatio="xMidYMid meet">
<metadata>
Created by potrace 1.14, written by Peter Selinger 2001-2017
</metadata>
<g transform="translate(0.000000,1225.000000) scale(0.100000,-0.100000)"
fill="#000000" stroke="none">
<path d="M5397 10154 c-1 -1 -94 -5 -207 -9 -113 -3 -230 -8 -260 -10 -132 -9
-228 -16 -270 -20 -25 -2 -76 -7 -115 -10 -38 -3 -81 -8 -95 -10 -14 -2 -54
-6 -90 -10 -59 -5 -98 -10 -170 -20 -14 -2 -45 -7 -70 -10 -25 -3 -56 -8 -70
-10 -31 -5 -214 -35 -255 -42 -24 -4 -178 -36 -277 -58 -614 -135 -1478 -475
-2008 -790 -173 -103 -469 -304 -490 -334 -3 -4 -32 -28 -65 -53 -99 -77 -226
-197 -350 -330 -194 -208 -299 -352 -376 -513 -49 -104 -165 -414 -195 -526
-18 -66 -25 -237 -12 -292 17 -72 42 -129 82 -191 l44 -66 -28 -118 c-28 -118
-46 -214 -54 -287 -3 -22 -8 -62 -11 -90 -28 -235 -17 -592 25 -845 5 -30 12
-73 16 -95 3 -22 14 -80 25 -130 107 -490 331 -918 724 -1384 111 -131 361
-386 488 -496 125 -110 253 -209 367 -286 52 -35 97 -66 100 -69 6 -6 11 -9
160 -94 98 -55 142 -77 340 -168 261 -121 762 -296 1065 -373 17 -5 35 -10 40
-11 35 -11 376 -96 405 -100 19 -3 38 -8 41 -10 4 -2 24 -6 45 -10 22 -3 91
-17 154 -30 63 -14 142 -29 175 -34 33 -5 69 -11 80 -13 11 -3 40 -8 65 -11
25 -3 56 -8 70 -10 14 -2 47 -7 73 -11 27 -4 56 -8 65 -10 10 -1 44 -6 77 -9
33 -4 71 -9 85 -11 14 -2 57 -6 95 -10 39 -3 81 -8 95 -10 23 -3 77 -8 240
-20 342 -26 1145 -26 1360 0 19 2 78 7 131 10 53 3 106 8 118 10 12 2 56 6 99
10 42 3 88 7 102 10 14 2 54 7 90 11 36 3 74 8 85 10 11 2 40 6 65 9 115 14
175 23 270 39 14 3 90 16 170 30 197 35 318 60 560 116 114 27 299 78 460 127
194 59 538 179 555 194 5 5 15 9 22 9 7 0 32 9 56 19 23 11 96 43 162 71 66
29 138 62 160 73 22 12 42 21 45 22 3 0 43 20 90 44 293 151 562 319 771 481
355 276 658 616 892 1003 92 152 193 349 252 494 20 48 40 97 45 108 15 31 86
251 110 338 20 75 24 90 35 147 5 27 12 60 20 100 18 90 32 205 34 276 1 38 5
43 58 80 95 65 182 184 224 303 27 77 34 131 34 261 0 120 -6 171 -29 258 -8
28 -12 52 -9 52 3 0 0 7 -7 15 -7 8 -10 15 -7 15 8 0 -66 185 -112 281 -67
137 -197 361 -213 367 -4 2 -8 8 -8 14 0 23 -259 384 -359 499 -11 13 -29 35
-41 49 -95 114 -362 389 -500 515 -612 560 -1386 984 -2265 1241 -82 25 -159
47 -170 49 -11 3 -38 9 -60 14 -151 37 -280 65 -410 91 -190 37 -261 49 -390
65 -21 3 -50 7 -64 9 -49 8 -106 15 -161 21 -30 4 -66 8 -80 10 -14 2 -59 7
-100 11 -41 3 -88 8 -105 10 -16 1 -66 5 -110 8 -44 4 -102 8 -130 11 -109 10
-326 21 -595 31 -155 6 -918 12 -923 8z"/>
</g>
</svg>
