<svg width="320" height="1039" viewBox="0 0 320 1039" fill="none" xmlns="http://www.w3.org/2000/svg">
<path d="M14.8505 81.6955C18.272 98.2478 5.34647 96.9091 -1.54398 94.1706V297.423C-1.54397 337.143 -4.81995 1026.94 -1.5441 1038.13C0.444022 1044.92 17.7016 1009.96 14.8504 1002.35C11.9992 994.745 6.29676 966.931 18.7708 963.889C31.2449 960.846 33.0269 953.848 39.4421 945.024C45.8574 936.2 62.2519 918.857 102.169 932.245C142.086 945.632 168.46 933.462 187.349 921.291C224.771 897.179 288.242 921.409 305.881 942.065C315.137 952.904 289.886 1006.49 305.881 1011.65C313.872 1014.24 321 1061.69 321 1009.07L321 78.3485C320.762 80.5798 319.004 84.3731 313.872 81.6955C298.761 75.1233 304.962 55.0211 309.952 45.7915C312.684 36.9677 313.587 16.2773 295.339 4.10648C273.878 -10.2073 210.727 17.4945 174.091 17.4944C134.066 17.4944 114.643 9.58346 90.7642 2.28097C66.8853 -5.02152 47.9959 7.45349 40.5115 17.4944C33.027 27.5353 32.6707 31.4909 21.2658 36.0549C-1.18757 43.0531 10.5737 61.0051 14.8505 81.6955Z" fill="#FEF3E4"/>
</svg>
