<svg width="320" height="1303" viewBox="0 0 320 1303" fill="none" xmlns="http://www.w3.org/2000/svg">
<path d="M14.8505 102.454C18.272 123.212 5.34647 121.533 -1.54398 118.099V372.996C-1.54397 422.808 -4.81995 1287.88 -1.5441 1301.91C0.444022 1310.42 17.7016 1266.58 14.8504 1257.04C11.9992 1247.5 6.29676 1212.62 18.7708 1208.8C31.2449 1204.99 33.0269 1196.21 39.4421 1185.15C45.8574 1174.08 62.2519 1152.33 102.169 1169.12C142.086 1185.91 168.46 1170.65 187.349 1155.38C224.771 1125.14 288.242 1155.53 305.881 1181.43C315.137 1195.03 289.886 1262.23 305.881 1268.71C313.872 1271.94 321 1331.46 321 1265.47L321 98.2561C320.762 101.054 319.004 105.811 313.872 102.454C298.761 94.2114 304.962 69.0014 309.952 57.4267C312.684 46.3608 313.587 20.4132 295.339 5.1499C273.878 -12.8008 210.727 21.9397 174.091 21.9396C134.066 21.9395 114.643 12.0185 90.7642 2.86054C66.8853 -6.29745 47.9959 9.34735 40.5115 21.9396C33.027 34.5318 32.6707 39.4924 21.2658 45.2161C-1.18757 53.9925 10.5737 76.506 14.8505 102.454Z" fill="#FEF3E4"/>
</svg>
