<svg width="768" height="1456" viewBox="0 0 768 1456" fill="none" xmlns="http://www.w3.org/2000/svg">
<path d="M-34.2116 263.857C-24.2852 317.317 -61.7852 312.993 -81.776 304.148V960.605C-81.776 1088.89 -91.28 1417.06 -81.776 1453.19C-76.008 1475.12 -25.9396 1362.2 -34.2117 1337.63C-42.4837 1313.07 -59.0278 1223.24 -22.8376 1213.41C13.3526 1203.58 18.5226 1180.98 37.1347 1152.48C55.7468 1123.98 103.311 1067.97 219.12 1111.21C334.929 1154.45 411.445 1115.14 466.248 1075.83C574.818 997.952 758.96 1076.21 810.136 1142.92C836.991 1177.93 763.732 1350.99 810.136 1367.68C833.32 1376.02 854 1529.29 854 1359.34L854 253.047C853.311 260.253 848.21 272.504 833.32 263.857C789.478 242.63 807.47 177.705 821.946 147.896C829.873 119.397 832.493 52.5717 779.552 13.2629C717.289 -32.967 534.072 56.5029 427.783 56.5028C311.659 56.5026 255.31 30.952 186.032 7.36674C116.753 -16.2185 61.9508 24.0729 40.2367 56.5027C18.5226 88.9324 17.4887 101.708 -15.5995 116.449C-80.7419 139.051 -46.6197 197.032 -34.2116 263.857Z" fill="#FEF3E4"/>
</svg>
